<svg version="1" xmlns="http://www.w3.org/2000/svg" width="384" height="384" viewBox="0 0 288.000000 288.000000"><path d="M0 144v144h288V177.5c0-99.7-.2-110.5-1.6-110.5-1.1 0-1.4-.6-.8-2.3.3-1.2 1.1-2.4 1.5-2.5 1-.4 1.2-32.1.3-34.6-.3-.9-1.2-1.6-1.9-1.6-1 0-1.1-.5-.2-2.4.7-1.3 1.5-2.2 1.9-2 .5.3.8-4.5.8-10.5V0h-6.5c-6.6 0-8.1 1-5.3 3.8.9.9.9 1.2-.1 1.2-2.3 0-4 2.8-5.7 9.4-1.8 7.2-6.7 16.2-11.6 21.3-1.7 1.7-6 4.6-9.7 6.4-6.3 3.2-7.3 3.3-22.1 4-8.5.4-17 1.2-18.9 1.8-11.9 3.7-19.1 15.9-19.1 32.4 0 7.4.5 8.7 5.8 15.6 4.5 5.9 9.5 16.6 12.4 26.7 1.9 6.7 2.3 10.2 2.2 22.4-.1 12.7-.4 15.6-2.7 23.3-3.4 11.2-6.5 17.4-13.3 26.4l-5.4 7.2 5.5 7.3c6.5 8.6 13.3 23.5 14.8 32.4 1.1 6.4 2.2 8 3 4.7.2-1 .2-.7-.1.7-.3 2-1 12.9-1.2 20.7 0 1-13.8 1.3-65.5 1.3-65.5 0-65.5 0-65.5-2.1 0-1.1-.4-1.8-.8-1.5-1.7 1-.1-17.2 2.3-26.9 2.2-8.4 10.5-25 15.9-31.4l4.5-5.4-4.5-5.1c-5.7-6.4-12.8-20.7-15.5-31.1-4.2-15.9-2.5-39.3 3.9-53.8 1.6-3.5 1.7-4.5.6-5.5-.7-.7-1.7-1.2-2.3-1.2-.5 0-.4-1 .2-2.4 1.2-2.5 4.5-3.1 5.9-1.1.5.6.8.4.9-.5.1-.8.2-2 .4-2.5.1-.6.3-1.7.3-2.7.1-1 .9-1.5 2-1.2 1 .2 2.5-.7 3.7-2.3 1.7-2.3 2-4.3 2-11.8-.1-10.6-1.4-15.6-5.8-22.1-2.3-3.5-4.8-5.7-9-7.8-5.4-2.8-6.8-3-21.5-3.6-16.4-.8-20.6-1.7-28-6.3-8.4-5.4-15.4-17.4-17.8-30.6-.7-4.2-1.3-8.2-1.4-8.9C15 .4 12.8 0 7.5 0H0v144zm69.3-93c.2 1-.4 2.5-1.3 3.3-1.7 1.4-2 1.4-3.4-.2-2.3-2.5-1.1-5.9 1.9-5.3 1.3.2 2.5 1.2 2.8 2.2zm143 12.7c.2 1.2-.3 2.7-1.3 3.6-1.4 1.2-1.9 1.2-3.6-.2-1.4-1.2-1.7-2.1-1-3.6 1.2-2.8 5.3-2.7 5.9.2zM14 63c.4 0 .7 1.1.6 2.5 0 1.4-.6 2.5-1.3 2.5-.6 0-1.8.3-2.6.6-.9.3-1.6-.3-2-1.7-.7-2.5 1.2-5 3.1-4.4.8.3 1.7.5 2.2.5zm231 6.9c0 .5.2 1.5.5 2.3.8 2.1-2.7 3.8-4.8 2.4-2.4-1.8-1.1-5.6 1.9-5.6 1.3 0 2.4.4 2.4.9zm10 6.1c0 .5.6 1 1.4 1 2.5 0-.4 4.5-3 4.6-2.9.2-4-3.4-1.6-5.2 2.1-1.6 3.2-1.7 3.2-.4zm-19.5 4.4c2 2 .8 5.6-1.9 5.3-3.4-.3-4.9-5.2-1.8-6 .9-.3 1.8-.5 2-.6.2 0 1 .5 1.7 1.3zm-31.1 1.9c.2 1.1-.1 2.6-.9 3.4-1.2 1.1-1.8 1.1-3.5.1-1.1-.7-1.8-1.9-1.5-2.6.3-.8.5-1.7.5-2.2 0-.4 1.1-.8 2.4-.8 1.6 0 2.6.7 3 2.1zm42.9 2.1c1 2.6-2 4.8-4.5 3.2-1-.6-1.6-1.7-1.3-2.4.3-.8.5-1.8.5-2.3 0-1.7 4.5-.4 5.3 1.5zm8.2 6.6c.7 0 1.3 1.1 1.3 2.4 0 1.7-.7 2.5-2.4 2.9-1.5.3-2.4 0-2.4-.9 0-.7-.5-1.4-1.2-1.6-.7-.3-.5-1.2.8-2.6 1-1.2 2-1.8 2.2-1.2.2.5.9 1 1.7 1zM36.7 93.6c.9 1.9.8 2.4-.2 2.4-.7 0-1.5.5-1.7 1.1-.7 2.2-4.5-1.2-4-3.6.5-3.1 4.4-3 5.9.1zM49 96c0 .5.7 1 1.6 1 1.1 0 1.4.5 1 1.6-.3.9-.6 2-.6 2.5 0 1.6-4.2 1-5.6-.8-1-1.5-.9-2.1.4-3.5 1.9-1.9 3.2-2.3 3.2-.8zm198.3 3.2c.6 2.1-2.4 5.7-3.1 3.7-.2-.5-1.1-.9-1.9-.9-1 0-1.3-.6-.9-1.6.3-.9.6-2 .6-2.5s1.1-.9 2.4-.9c1.6 0 2.6.7 2.9 2.2zm-220.5 2.6c2.3 2.3.7 5.8-2.4 5.4-2.5-.4-4.1-5.2-1.8-5.2.8 0 1.4-.5 1.4-1 0-1.4.8-1.2 2.8.8zm13.5 4.4c.8 3.1-2.2 5.2-4.4 3.2-2.3-2.1-1.3-5.4 1.6-5.4 1.5 0 2.5.7 2.8 2.2zM35 115c0 .5.2 1.4.5 2.2.8 2.1-2.7 3.8-4.8 2.4-2.4-1.8-1.1-5.4 1.9-5.4 1.3 0 2.4.4 2.4.8zm39.7 127.2c-.3.8-.6.5-.6-.6-.1-1.1.2-1.7.5-1.3.3.3.4 1.2.1 1.9zm2 9c-.3.7-.5.2-.5-1.2s.2-1.9.5-1.3c.2.7.2 1.9 0 2.5zm139 15.4c-.3.3-1.2.4-1.9.1-.8-.3-.5-.6.6-.6 1.1-.1 1.7.2 1.3.5zm-141.3 1.9c-.4.8-.8 1.5-1 1.5-.2 0-.4-.7-.4-1.5s.4-1.5 1-1.5c.5 0 .7.7.4 1.5z"/><path d="M165 115.6c-7.3 3.2-11 8.6-11 16.2v5l4.4.3c3.4.3 4.2.1 3.8-1-.4-1.1.2-1.2 3-.7 2.9.5 3.8.2 5.8-1.9 3.1-3.3 3.7-3.2 4.4.9.5 2.5 1.4 3.7 3.6 4.6 3.7 1.6 3.7 2.1 0 4.3-2.2 1.3-3 2.6-3 4.6 0 3.9-1 4.5-3.6 2-1.7-1.6-3.2-2-5.8-1.7-3.8.4-4.5-.6-2.6-4.1.8-1.6.4-1.9-2.8-2.5-7.2-1.2-7.3-1.1-7.1 4.4.2 3.8.6 5 1.8 5.1 1.2 0 1.1.3-.4.9-1.7.7-1.7.9-.2.9.9.1 1.7.6 1.7 1.2 0 .5-.5.7-1.1.3-.8-.4-.8 0 0 1.5 1.3 2.4 2.3 2.9 1.5.7-.8-2.1 1.1-2.7 3.2-1.1 1.1.9 1.3 1.4.5 1.3-.7-.2-1.6.3-1.8 1.1-.4 1 .3 1.2 3.3.7 4.3-.7 8.2.8 5.2 1.9-.9.4-2.4.8-3.2.9-.9.1-1.6.6-1.5 1.2 0 .5.6.7 1.3.5.6-.2 2-.5 3.1-.8 1.6-.3 1.6-.2-.2.6-1.3.6-2.3 1.2-2.3 1.4 0 .2 2.6.3 5.8.2 9.1-.4 9-.3 6.5-2.3l-2.3-1.7 2.7-.2c1.9-.1 2.2.1 1.2.8-1.2.7-1.2.9.1.9.8-.1 2.3-.7 3.3-1.4 1.8-1.4 1.8-1.4 0-1.9-1.2-.3-1-.5.8-.6 2.8-.1 4.8-3.3 4.9-8.1 0-1.4.3-5.7.6-9.5.8-9.7-.8-16.5-5.1-20.6-5.7-5.6-12.1-7.1-18.5-4.3zm12 6.4c0 .5.3 1.5.6 2.4.4 1.1.1 1.6-1 1.6-.9 0-1.6.5-1.6 1.2 0 .6-.8.4-1.9-.6-1.1-1-1.6-2.5-1.4-4 .4-1.8 1-2.2 2.9-1.8 1.3.2 2.4.8 2.4 1.2zm-9.8 3c1.1 0 1.8.5 1.5 1.2-.2.7 0 2.1.5 3 .6 1.3.5 1.8-.5 1.8-.8 0-2 .6-2.6 1.4-1 1.2-1.6 1-3.6-.8-1.5-1.3-2-2.5-1.4-3.1.5-.5.9-1.8.9-2.8 0-1.3.5-1.7 1.6-1.3.9.3 2.5.6 3.6.6zm19.5 27.5c0 .8-.4 1.2-.9.9-.5-.3-.6-1-.3-1.5.9-1.3 1.2-1.1 1.2.6zm-2.3 3.6c-3 1.2-3.7 1-2.4-.5.6-.8 1.9-1.2 2.7-.9 1.4.6 1.4.8-.3 1.4zM179 158c-.8.5-1.9 1-2.5 1-.5 0-.3-.5.5-1s2-1 2.5-1c.6 0 .3.5-.5 1zm-4 5.3c1.1.5.9.6-.4.4-1.1-.1-2.1-.9-2.3-1.7-.3-1-.2-1.1.4-.4.4.6 1.5 1.4 2.3 1.7zM110.7 127.5c-6.8 2.4-10.7 7-11.3 13.5l-.3 3.8 8.9-2.9c4.9-1.6 12-3.4 15.9-4l7-1.2-1.5-2.6c-3.6-6.1-12-9-18.7-6.6zM120 141.5c-7.4 1.2-17.1 3.8-19 5-1.1.7 1.8 6.5 3.3 6.5.4 0 .5.5.1 1.1-.4.8 0 .7 1.5-.1 2.7-1.4 5.7-.5 6.4 1.9.3 1.4 0 1.7-1.4 1.4-1.1-.3-2.2-.9-2.5-1.4-.3-.5.3-.6 1.2-.2 1.2.4 1.5.3 1-.5-.9-1.5-3.3-1.6-4.1-.2-.9 1.5 5.6 3.9 9.6 3.5 7.5-.8 10.3-2 9.5-4.1-.3-.9.2-1.4 1.4-1.4 1.6 0 2-.7 2-3.5 0-2.4.4-3.3 1.3-2.9.9.3 1.4-.7 1.5-3.1.3-4.1.3-4.1-11.8-2zm-15.8 7.5c1.2 1.1 2 2.2 1.7 2.4-.2.2-1.5-.7-2.9-2-1.3-1.3-2.1-2.4-1.7-2.4.4 0 1.7.9 2.9 2zm23.2 1.5c-.4.8-1.1 1.2-1.6.9-.6-.4-.5-1 .3-1.5 1.9-1.2 1.9-1.1 1.3.6zm-5 3.1c-1.6 1.3-1.6 1.5-.1 1 .9-.3 1.7-.2 1.7.3s-.9 1.1-1.9 1.4c-1.1.2-1.8 0-1.7-.7.3-1.9 1.7-3.6 2.9-3.6.6 0 .2.7-.9 1.6zm-5.1.1c-.7.2-1.9.2-2.5 0-.7-.3-.2-.5 1.2-.5s1.9.2 1.3.5zm1.7 1.7c0 .3-.4.8-1 1.1-.5.3-1 .1-1-.4 0-.6.5-1.1 1-1.1.6 0 1 .2 1 .4z"/><path d="M162 159.9c-.8.6-1.8.7-2.4.4-.5-.3-.6-.1-.2.6.4.6 1.2.9 1.7.6.5-.4 1.9-.8 3-1 1.2-.3 2.4-.7 2.7-1 .9-.9-3.2-.5-4.8.4zM117 172.8c0 1.8 2.2 7.2 3 7.2.4 0 1.1.7 1.4 1.6.4.9.2 1.3-.5.8-.8-.5-.8-.1 0 1.2 1.2 2.2 5.6 7.5 4.6 5.6-.9-1.7.3-3.2 2.1-2.5 1.1.4 1.2.9.3 1.9-.8.9-.8 1.4-.1 1.4.6 0 1.4-.5 1.7-1 .3-.6 1.1-1 1.8-1 .6 0 .1.7-1.2 1.6l-2.4 1.7 3.8 2.3c4.9 2.9 10.5 4 11.6 2.2.7-1.1 1.1-1.1 1.7 0 1.1 1.6 6.2.6 6.2-1.2 0-.6.5-.4 1 .4.6.9 1 1 1 .3 0-.6 1.6-1.7 3.5-2.3 3.8-1.3 4.1-1.9 2.3-4-.7-.8-.3-.6.8.3 2.1 1.8 2.2 1.7 4.3-.9 1.1-1.5 2.1-3.1 2.1-3.7 0-.6.9-2 2-3.2 1.1-1.1 2.3-3.6 2.6-5.5.6-3 .5-3.3-1.2-2.6-1 .4-5.5 1.5-9.9 2.3-12.1 2.3-26.7 1.2-40.2-3.1-1.3-.4-2.3-.3-2.3.2zm7.8 13.7c-.3.3-.9-.2-1.2-1.2-.6-1.4-.5-1.5.5-.6.7.7 1 1.5.7 1.8zm38.3 1.1c-1.1 1.5-2.1 2.4-2.1 2 0-1 3.4-5.5 3.9-5.1.2.2-.6 1.6-1.8 3.1zm-26.1 3.8c0 .8 1.1 1.7 2.5 2 2.4.6 2.7 2.6.4 2.6-.6 0-.7-.5-.3-1.1.5-.8-.1-1-1.8-.6-3 .8-6.9-1.5-4.8-2.8.9-.6 1.1-.4.5.5-.5.8-.3 1.1.6.8.8-.3 1.3-1.1 1.2-1.7-.2-.6.2-1.1.7-1.1.6 0 1 .6 1 1.4zm16.5-.4c-1.2.5-1.4.9-.6.9.8.1 1.2.3 1 .6-.3.2-1.6.1-2.9-.2-2.2-.6-2.3-.7-.4-1.4 2.7-1.1 5.4-1 2.9.1zm-7.5 2.4c-.6.6-1.8.5-3.2-.1-2.1-1-2.1-1 .9-.9 1.9.1 2.8.5 2.3 1zm3 1.6c-2.4 1.5-3.7 1.1-1.6-.5 1.1-.8 2.2-1.2 2.5-.9.3.3-.1.9-.9 1.4z"/></svg>